<svg width="156" height="30" viewBox="0 0 156 30" fill="none" xmlns="http://www.w3.org/2000/svg">
<path d="M0.680431 23V2H10.4304C11.9104 2 13.2504 2.32 14.4504 2.96C15.6504 3.58 16.6104 4.45 17.3304 5.57C18.0504 6.67 18.4104 7.96 18.4104 9.44C18.4104 10.72 18.1004 11.9 17.4804 12.98C16.8804 14.04 16.0704 14.9 15.0504 15.56L16.4604 17.9C16.5804 18.08 16.7104 18.22 16.8504 18.32C17.0104 18.4 17.2204 18.44 17.4804 18.44H19.1604V23H16.0404C15.0404 23 14.1504 22.78 13.3704 22.34C12.5904 21.88 11.9904 21.29 11.5704 20.57L9.44043 16.91C9.32043 16.91 9.20043 16.91 9.08043 16.91C8.96043 16.91 8.85043 16.91 8.75043 16.91H6.41043V23H0.680431ZM6.41043 12.35H9.83043C10.3304 12.35 10.7904 12.24 11.2104 12.02C11.6504 11.78 11.9904 11.44 12.2304 11C12.4904 10.56 12.6204 10.05 12.6204 9.47C12.6204 8.89 12.4904 8.39 12.2304 7.97C11.9704 7.55 11.6304 7.23 11.2104 7.01C10.7904 6.77 10.3304 6.65 9.83043 6.65H6.41043V12.35ZM28.4323 23C26.6923 23 25.1523 22.69 23.8123 22.07C22.4923 21.45 21.4423 20.56 20.6623 19.4C19.9023 18.24 19.5223 16.87 19.5223 15.29C19.5223 13.53 19.8923 12.05 20.6323 10.85C21.3723 9.65 22.3523 8.74 23.5723 8.12C24.7923 7.5 26.1023 7.19 27.5023 7.19C29.0223 7.19 30.3323 7.51 31.4323 8.15C32.5523 8.77 33.4123 9.65 34.0123 10.79C34.6323 11.93 34.9423 13.26 34.9423 14.78C34.9423 15.1 34.9223 15.47 34.8823 15.89C34.8623 16.29 34.8123 16.63 34.7323 16.91H24.9223C25.0423 17.35 25.2323 17.72 25.4923 18.02C25.7723 18.3 26.1323 18.51 26.5723 18.65C27.0323 18.79 27.5523 18.86 28.1323 18.86H33.2323V23H28.4323ZM24.7423 13.88H30.0223C30.0223 13.58 29.9823 13.31 29.9023 13.07C29.8223 12.81 29.7123 12.57 29.5723 12.35C29.4323 12.13 29.2623 11.94 29.0623 11.78C28.8623 11.62 28.6223 11.5 28.3423 11.42C28.0623 11.34 27.7623 11.3 27.4423 11.3C27.0223 11.3 26.6523 11.37 26.3323 11.51C26.0123 11.65 25.7423 11.84 25.5223 12.08C25.3023 12.3 25.1223 12.57 24.9823 12.89C24.8623 13.19 24.7823 13.52 24.7423 13.88ZM44.7268 23C43.1268 23 41.6968 22.67 40.4368 22.01C39.1768 21.35 38.1868 20.44 37.4668 19.28C36.7468 18.12 36.3868 16.79 36.3868 15.29C36.3868 13.79 36.7468 12.46 37.4668 11.3C38.1868 10.12 39.1768 9.2 40.4368 8.54C41.6968 7.88 43.1268 7.55 44.7268 7.55H47.3968V11.87H45.0568C44.3568 11.87 43.7468 12.02 43.2268 12.32C42.7068 12.62 42.3068 13.03 42.0268 13.55C41.7468 14.07 41.6068 14.65 41.6068 15.29C41.6068 15.93 41.7468 16.52 42.0268 17.06C42.3068 17.58 42.7068 17.99 43.2268 18.29C43.7468 18.59 44.3568 18.74 45.0568 18.74H47.3968V23H44.7268ZM49.2795 23V7.55H54.4995V23H49.2795ZM51.8895 5.87C51.0895 5.87 50.3995 5.58 49.8195 5C49.2595 4.42 48.9795 3.74 48.9795 2.96C48.9795 2.16 49.2595 1.48 49.8195 0.919998C50.3995 0.339998 51.0895 0.0499986 51.8895 0.0499986C52.6895 0.0499986 53.3695 0.339998 53.9295 0.919998C54.5095 1.48 54.7995 2.16 54.7995 2.96C54.7995 3.74 54.5095 4.42 53.9295 5C53.3695 5.58 52.6895 5.87 51.8895 5.87ZM65.4019 7.16C66.7019 7.16 67.8719 7.36 68.9119 7.76C69.9519 8.16 70.8319 8.74 71.5519 9.5C72.2919 10.24 72.8519 11.12 73.2319 12.14C73.6319 13.16 73.8319 14.28 73.8319 15.5C73.8319 17.06 73.5119 18.43 72.8719 19.61C72.2519 20.79 71.3819 21.71 70.2619 22.37C69.1419 23.03 67.8719 23.36 66.4519 23.36C65.8919 23.36 65.3519 23.29 64.8319 23.15C64.3119 23.01 63.8419 22.81 63.4219 22.55C63.0019 22.27 62.6319 21.94 62.3119 21.56H62.1919V29.45H56.9719V15.56C56.9719 13.86 57.3219 12.38 58.0219 11.12C58.7219 9.86 59.7019 8.89 60.9619 8.21C62.2419 7.51 63.7219 7.16 65.4019 7.16ZM65.4019 11.69C64.8019 11.69 64.2619 11.85 63.7819 12.17C63.3019 12.47 62.9319 12.89 62.6719 13.43C62.4119 13.95 62.2819 14.56 62.2819 15.26C62.2819 15.9 62.4119 16.49 62.6719 17.03C62.9319 17.55 63.3019 17.97 63.7819 18.29C64.2619 18.59 64.8019 18.74 65.4019 18.74C66.0419 18.74 66.5919 18.59 67.0519 18.29C67.5319 17.97 67.8919 17.55 68.1319 17.03C68.3919 16.49 68.5219 15.9 68.5219 15.26C68.5219 14.56 68.3919 13.95 68.1319 13.43C67.8919 12.89 67.5319 12.47 67.0519 12.17C66.5919 11.85 66.0419 11.69 65.4019 11.69ZM84.23 23C82.49 23 80.95 22.69 79.61 22.07C78.29 21.45 77.24 20.56 76.46 19.4C75.7 18.24 75.32 16.87 75.32 15.29C75.32 13.53 75.69 12.05 76.43 10.85C77.17 9.65 78.15 8.74 79.37 8.12C80.59 7.5 81.9 7.19 83.3 7.19C84.82 7.19 86.13 7.51 87.23 8.15C88.35 8.77 89.21 9.65 89.81 10.79C90.43 11.93 90.74 13.26 90.74 14.78C90.74 15.1 90.72 15.47 90.68 15.89C90.66 16.29 90.61 16.63 90.53 16.91H80.72C80.84 17.35 81.03 17.72 81.29 18.02C81.57 18.3 81.93 18.51 82.37 18.65C82.83 18.79 83.35 18.86 83.93 18.86H89.03V23H84.23ZM80.54 13.88H85.82C85.82 13.58 85.78 13.31 85.7 13.07C85.62 12.81 85.51 12.57 85.37 12.35C85.23 12.13 85.06 11.94 84.86 11.78C84.66 11.62 84.42 11.5 84.14 11.42C83.86 11.34 83.56 11.3 83.24 11.3C82.82 11.3 82.45 11.37 82.13 11.51C81.81 11.65 81.54 11.84 81.32 12.08C81.1 12.3 80.92 12.57 80.78 12.89C80.66 13.19 80.58 13.52 80.54 13.88ZM98.6344 23C97.4544 23 96.3744 22.74 95.3944 22.22C94.4144 21.68 93.6344 20.95 93.0544 20.03C92.4944 19.09 92.2144 18.03 92.2144 16.85C92.2144 15.95 92.4144 15.1 92.8144 14.3C93.2144 13.5 93.7744 12.82 94.4944 12.26C93.8544 11.72 93.3344 11.08 92.9344 10.34C92.5544 9.58 92.3644 8.8 92.3644 8C92.3644 6.84 92.6444 5.81 93.2044 4.91C93.7644 4.01 94.5244 3.3 95.4844 2.78C96.4444 2.26 97.4944 2 98.6344 2H107.754V6.65H99.7744C99.4144 6.65 99.0844 6.72 98.7844 6.86C98.5044 7 98.2744 7.2 98.0944 7.46C97.9344 7.72 97.8544 8.03 97.8544 8.39C97.8544 8.73 97.9344 9.03 98.0944 9.29C98.2744 9.53 98.5044 9.73 98.7844 9.89C99.0844 10.03 99.4144 10.1 99.7744 10.1H106.704V14.72H99.8344C99.4544 14.72 99.1144 14.8 98.8144 14.96C98.5144 15.1 98.2744 15.31 98.0944 15.59C97.9344 15.87 97.8544 16.19 97.8544 16.55C97.8544 16.91 97.9344 17.23 98.0944 17.51C98.2744 17.77 98.5144 17.98 98.8144 18.14C99.1144 18.28 99.4544 18.35 99.8344 18.35H107.754V23H98.6344ZM116.271 23.39C114.931 23.39 113.741 23.05 112.701 22.37C111.661 21.69 110.841 20.76 110.241 19.58C109.661 18.38 109.371 17.02 109.371 15.5C109.371 13.9 109.721 12.47 110.421 11.21C111.141 9.95 112.141 8.97 113.421 8.27C114.701 7.55 116.211 7.19 117.951 7.19C119.651 7.19 121.111 7.54 122.331 8.24C123.571 8.94 124.531 9.9 125.211 11.12C125.891 12.34 126.231 13.74 126.231 15.32V23H121.221V20.6H121.101C120.821 21.14 120.461 21.62 120.021 22.04C119.581 22.46 119.051 22.79 118.431 23.03C117.831 23.27 117.111 23.39 116.271 23.39ZM117.831 18.86C118.471 18.86 119.021 18.71 119.481 18.41C119.941 18.09 120.301 17.66 120.561 17.12C120.821 16.58 120.951 15.97 120.951 15.29C120.951 14.61 120.821 14.02 120.561 13.52C120.301 13 119.941 12.59 119.481 12.29C119.021 11.97 118.471 11.81 117.831 11.81C117.211 11.81 116.661 11.97 116.181 12.29C115.721 12.59 115.361 13 115.101 13.52C114.841 14.02 114.711 14.61 114.711 15.29C114.711 15.97 114.841 16.58 115.101 17.12C115.361 17.66 115.721 18.09 116.181 18.41C116.661 18.71 117.211 18.86 117.831 18.86ZM134.797 23C133.337 23 132.187 22.59 131.347 21.77C130.527 20.93 130.117 19.79 130.117 18.35V3.86H135.307V17.96C135.307 18.18 135.387 18.37 135.547 18.53C135.707 18.67 135.897 18.74 136.117 18.74H139.477V23H134.797ZM127.687 11.63V7.55H139.477V11.63H127.687ZM141.649 23V19.1H148.969C149.169 19.1 149.329 19.06 149.449 18.98C149.589 18.9 149.689 18.8 149.749 18.68C149.829 18.54 149.869 18.39 149.869 18.23C149.869 18.07 149.829 17.93 149.749 17.81C149.689 17.67 149.589 17.56 149.449 17.48C149.329 17.4 149.169 17.36 148.969 17.36H146.449C145.449 17.36 144.539 17.2 143.719 16.88C142.899 16.54 142.239 16.01 141.739 15.29C141.259 14.55 141.019 13.6 141.019 12.44C141.019 11.54 141.239 10.72 141.679 9.98C142.139 9.24 142.749 8.65 143.509 8.21C144.269 7.77 145.109 7.55 146.029 7.55H153.679V11.42H147.049C146.829 11.42 146.629 11.5 146.449 11.66C146.289 11.82 146.209 12.02 146.209 12.26C146.209 12.48 146.289 12.67 146.449 12.83C146.609 12.99 146.809 13.07 147.049 13.07H149.449C150.589 13.07 151.579 13.25 152.419 13.61C153.259 13.95 153.899 14.48 154.339 15.2C154.799 15.92 155.029 16.87 155.029 18.05C155.029 18.95 154.799 19.78 154.339 20.54C153.879 21.28 153.259 21.88 152.479 22.34C151.719 22.78 150.859 23 149.899 23H141.649Z" fill="#F1B39D"/>
</svg>
